<svg xmlns="http://www.w3.org/2000/svg" width="1115" height="809" fill="none"><path stroke="#F18D85" stroke-width="2" d="M1085 1 877.712 20.122C809.768 26.389 858.159 107.477 818.5 163c-29.073 40.702-77.424-44.253-36.689-73.279C795.842 79.724 804.687 74.23 805 76c1.031 5.84 40.002 91.028 67.559 150.647 7.42 16.052 3.744 35.033-9.137 47.148-26.447 24.875-9.91 69.073 26.388 69.894 60.034 1.358 118.4 1.342 123.69-3.189 37.48-32.123 94.95 4.92 98.55 54.148l1.62 22.05c4.54 62.078-57.48 107.521-115.755 85.657C937.891 479.836 885 461.386 885 466v138.842c0 17.977 18.714 29.817 34.969 22.139 18.652-8.811 18.733-35.321.135-44.246l-70.688-33.922c-24.416-11.717-52.066 8.408-48.423 35.243 4.712 34.704-39.769 53.02-60.86 25.062l-23.926-31.716a44.394 44.394 0 0 0-12.623-11.346l-111.426-66.771c-6.174-3.699-7.225-12.218-2.136-17.307 8.273-8.273-.286-22.048-11.367-18.297l-71.128 24.078a28.6 28.6 0 0 1-23.872-2.556l-80.83-48.427a59.973 59.973 0 0 0-45.435-6.718l-3.656.919c-35.624 8.952-53.597 48.773-36.744 81.409l16.381 31.721c7.204 13.952 25.073 18.325 37.906 9.277 17.944-12.651 42.498 1.382 40.706 23.263l-3.272 39.944c-2.221 27.11-27.971 45.943-54.479 39.845l-39.585-9.106a79.756 79.756 0 0 0-33.403-.506l-71.245 14.134a73.661 73.661 0 0 0-51.618 39.445c-17.951 36.089-3.811 80.504 33.241 96.372C208.461 803.986 222.023 808.751 225 807c33.533-19.726 9.187-73.763-28.099-84.87l-87.707-26.126a37.964 37.964 0 0 0-41.082 13.439C57.96 722.825 40.222 727.945 24.5 722.03L.5 713"/></svg>